<svg xmlns="http://www.w3.org/2000/svg" version="1.1" xmlns:xlink="http://www.w3.org/1999/xlink" xmlns:svgjs="http://svgjs.dev/svgjs" width="1000" height="1000"><g clip-path="url(#SvgjsClipPath1070)"><rect width="1000" height="1000" fill="#fef9ef"></rect><g transform="matrix(3.125,0,0,3.125,100,100)"><svg xmlns="http://www.w3.org/2000/svg" version="1.1" xmlns:xlink="http://www.w3.org/1999/xlink" xmlns:svgjs="http://svgjs.dev/svgjs" width="256" height="256"><svg width="256" height="256" viewBox="0 0 256 256" fill="none" xmlns="http://www.w3.org/2000/svg">
<rect width="256" height="256" fill="#FEF9EF"></rect>
<path d="M123.6 207.6C122.96 207.6 122.24 207.36 121.44 206.88C120.64 206.4 120.08 205.36 119.76 203.76L83.52 56.64C83.36 55.52 82.88 55.04 82.08 55.2C81.28 55.2 80.88 55.76 80.88 56.88L76.08 189.36C75.92 193.84 76.64 197.28 78.24 199.68C79.84 201.92 82.64 203.36 86.64 204L89.76 204.48C91.84 204.64 92.88 205.6 92.88 207.36C92.88 209.12 91.68 210 89.28 210H54.96C52.56 210 51.36 209.12 51.36 207.36C51.36 205.6 52.4 204.64 54.48 204.48L57.6 204C61.76 203.36 64.56 201.92 66 199.68C67.6 197.28 68.48 193.84 68.64 189.36L73.44 53.04C73.6 49.68 73.12 47.44 72 46.32C70.88 45.2 68.48 44.32 64.8 43.68L59.28 42.72C57.2 42.24 56.16 41.28 56.16 39.84C56.16 38.08 57.36 37.2 59.76 37.2H88.56C93.52 37.2 96.56 39.6 97.68 44.4L126.72 164.16C127.04 165.28 127.52 165.84 128.16 165.84C128.96 165.84 129.44 165.28 129.6 164.16L159.84 43.2C160.8 39.2 163.36 37.2 167.52 37.2H195.84C198.24 37.2 199.44 38.08 199.44 39.84C199.44 41.28 198.4 42.24 196.32 42.72L190.8 43.68C187.44 44.32 185.2 45.2 184.08 46.32C182.96 47.44 182.48 49.68 182.64 53.04L187.44 194.16C187.6 197.52 188.16 199.76 189.12 200.88C190.08 202 192.24 202.88 195.6 203.52L201.12 204.48C203.2 204.96 204.24 205.92 204.24 207.36C204.24 209.12 203.04 210 200.64 210H157.2C154.8 210 153.6 209.12 153.6 207.36C153.6 205.92 154.64 204.96 156.72 204.48L162.24 203.52C165.6 202.88 167.84 202 168.96 200.88C170.08 199.76 170.56 197.52 170.4 194.16L166.32 56.88C166.32 55.76 165.92 55.2 165.12 55.2C164.48 55.04 164 55.44 163.68 56.4L127.2 203.76C126.88 205.36 126.32 206.4 125.52 206.88C124.88 207.36 124.24 207.6 123.6 207.6Z" fill="#423F3C"></path>
</svg></svg></g></g><defs><clipPath id="SvgjsClipPath1070"><rect width="1000" height="1000" x="0" y="0" rx="150" ry="150"></rect></clipPath></defs></svg>